<?xml version="1.0" encoding="UTF-8" standalone="no"?>
<svg width="747px" height="113px" viewBox="0 0 747 113" version="1.1" xmlns="http://www.w3.org/2000/svg" xmlns:xlink="http://www.w3.org/1999/xlink" xmlns:sketch="http://www.bohemiancoding.com/sketch/ns">
    <!-- Generator: Sketch 3.2.2 (9983) - http://www.bohemiancoding.com/sketch -->
    <title>Group</title>
    <desc>Created with Sketch.</desc>
    <defs></defs>
    <g id="Page-1" stroke="none" stroke-width="1" fill="none" fill-rule="evenodd" sketch:type="MSPage">
        <g id="Imported-Layers" sketch:type="MSLayerGroup" fill="#000000">
            <g id="Group" sketch:type="MSShapeGroup">
                <path d="M26.2509565,88 L26.2509565,49.6872727 C26.2509565,42.7490909 25.2033043,41.3090909 18.9283043,40.6545455 C18.4044783,40.6545455 17.8806522,39.8690909 17.8806522,38.9527273 C17.8806522,38.0363636 18.4044783,37.3818182 18.9283043,37.3818182 C25.0832609,35.8218182 31.0963478,33.8581818 35.417913,30.5854545 C35.8107826,30.3236364 36.2036522,29.5381818 37.2513043,29.5381818 C38.168,29.5381818 39.0846957,30.0618182 39.0846957,30.5854545 C38.5499565,36.0836364 38.0370435,46.5454545 38.0370435,53.3527273 L38.0370435,82.0327273 M31.882087,14.3527273 C28.2153043,14.3527273 25.0832609,11.2218182 25.0832609,7.55636364 C25.0832609,3.76 28.2153043,0.618181818 31.882087,0.618181818 C35.6798261,0.618181818 38.6918261,3.76 38.6918261,7.55636364 C38.6918261,11.2218182 35.6798261,14.3527273 31.882087,14.3527273" id="Fill-1"></path>
                <path d="M112.529478,85.7963636 C107.029304,86.32 100.088609,87.3672727 96.159913,90.2472727 C95.7779565,90.64 94.9813043,91.0327273 94.3265217,91.0327273 C93.4098261,91.0327273 93.0278696,90.5090909 93.0278696,89.9854545 L93.5407826,81.7381818 C87.9205652,86.8436364 82.0275217,90.5090909 76.0035217,90.5090909 C62.7878261,90.5090909 57.0257391,81.88 57.0257391,71.6690909 L57.0257391,47.2 C57.0257391,38.8327273 55.3233043,37.2618182 47.7387391,37.5236364 C47.0839565,37.6545455 46.691087,36.8690909 46.691087,35.9418182 C46.691087,34.9054545 47.0839565,33.8581818 47.7387391,33.8581818 C52.7041739,33.8581818 61.7401739,32.2872727 67.3713043,30.8472727 C68.1570435,30.7163636 68.8118261,31.5018182 68.8118261,32.5490909 L68.8118261,68.5272727 C68.8118261,76.8945455 71.289087,82.6545455 80.4560435,82.6545455 C86.349087,82.6545455 89.7539565,80.2981818 93.5407826,76.12 L93.5407826,47.2 C93.5407826,38.8327273 91.7073913,37.2618182 84.1228261,37.5236364 C83.4680435,37.6545455 83.0751739,36.8690909 83.0751739,35.9418182 C83.0751739,34.9054545 83.4680435,33.8581818 84.1228261,33.8581818 C89.2192174,33.8581818 98.1242609,32.2872727 103.886348,30.8472727 C104.54113,30.7163636 105.195913,31.5018182 105.195913,32.5490909 L105.195913,74.2872727 C105.195913,80.7018182 106.636435,81.7381818 112.529478,82.5236364 C113.053304,82.5236364 113.566217,83.3090909 113.566217,84.2254545 C113.566217,85.2727273 113.173348,85.6654545 112.529478,85.7963636" id="Fill-2"></path>
                <path d="M139.397391,90.5090909 C133.635304,90.5090909 126.956522,88.1527273 123.027826,88.1527273 C122.504,83.5709091 121.325391,77.6909091 120.670609,74.2872727 C120.550565,73.7636364 121.587304,73.24 122.504,73.24 C123.420696,73.24 124.206435,73.6327273 124.337391,74.2872727 C126.301739,80.44 132.980522,86.32 139.517435,86.32 C146.196217,86.32 149.863,82.3927273 149.863,76.12 C149.863,63.2909091 121.587304,66.04 121.587304,46.8072727 C121.587304,37.3818182 131.14713,30.0618182 141.612739,30.0618182 C147.374826,30.0618182 153.005957,31.8945455 155.625087,31.8945455 C155.756043,36.4654545 156.017957,41.0472727 156.410826,44.9745455 C156.53087,45.4981818 155.625087,46.0218182 154.577435,46.0218182 C153.660739,46.0218182 152.875,45.6290909 152.744043,44.9745455 C151.827348,38.8327273 147.767696,34.2509091 142.267522,34.2509091 C135.206783,34.2509091 132.063826,37.5236364 132.063826,43.1418182 C132.063826,55.3163636 160.852435,55.84 160.852435,71.6690909 C160.852435,82.6545455 150.910652,90.5090909 139.397391,90.5090909" id="Fill-3"></path>
                <path d="M208.531522,40.0109091 L189.019,39.4763636 L189.019,70.8836364 C189.019,79.12 191.63813,83.1781818 197.793087,83.1781818 C201.983696,83.1781818 204.602826,82.3927273 207.472957,80.7018182 C208.127739,80.2981818 209.044435,81.6181818 209.044435,82.7963636 C209.044435,83.3090909 208.782522,83.8327273 208.389652,84.2254545 C204.340913,87.6290909 199.888391,89.9854545 193.209609,89.9854545 C182.613043,89.9854545 176.589043,82.6545455 176.850957,72.8472727 L177.11287,41.0472727 C177.11287,40.1309091 176.589043,39.2145455 175.541391,39.2145455 L170.575957,39.2145455 C169.659261,39.2145455 169.124522,38.2981818 169.124522,37.5236364 C169.124522,36.7381818 169.779304,35.8218182 170.314043,35.56 C176.458087,31.8945455 182.089217,26.2654545 186.14887,20.3745455 C186.410783,19.9927273 186.934609,19.3381818 187.971348,19.3381818 C188.888043,19.3381818 189.804739,19.8509091 189.804739,20.3745455 L189.280913,32.9418182 L208.531522,32.9418182 C209.568261,32.9418182 210.223043,34.5127273 210.223043,36.4654545 C210.223043,38.5709091 209.568261,40.0109091 208.531522,40.0109091" id="Fill-4"></path>
                <path d="M247.163696,88.5454545 C241.663522,88.5454545 238.651522,87.76 232.376522,87.76 C226.090609,87.76 223.209565,88.5454545 217.709391,88.5454545 C217.054609,88.5454545 216.661739,87.76 216.661739,86.7127273 C216.661739,85.6654545 217.054609,85.0109091 217.709391,84.88 C225.30487,83.9636364 226.483478,82.2618182 226.483478,73.8945455 L226.483478,49.6872727 C226.483478,42.7490909 225.435826,41.3090909 219.28087,40.6545455 C218.626087,40.6545455 218.233217,39.8690909 218.233217,38.9527273 C218.233217,38.0363636 218.626087,37.3818182 219.28087,37.3818182 C225.435826,35.8218182 231.317957,33.8581818 235.650435,30.5854545 C236.163348,30.3236364 236.425261,29.5381818 237.472913,29.5381818 C238.520565,29.5381818 239.306304,30.0618182 239.306304,30.5854545 C238.913435,36.0836364 238.258652,46.5454545 238.258652,53.3527273 L238.258652,73.8945455 C238.258652,82.2618182 239.437261,83.9636364 247.163696,84.88 C247.676609,85.0109091 248.211348,85.6654545 248.211348,86.7127273 C248.211348,87.76 247.676609,88.5454545 247.163696,88.5454545 L247.163696,88.5454545 Z M232.234652,14.3527273 C228.447826,14.3527273 225.435826,11.2218182 225.435826,7.55636364 C225.435826,3.76 228.447826,0.749090909 232.234652,0.749090909 C236.032391,0.749090909 239.044391,3.76 239.044391,7.55636364 C239.044391,11.2218182 236.032391,14.3527273 232.234652,14.3527273 L232.234652,14.3527273 Z" id="Fill-5"></path>
                <path d="M320.084652,88.5454545 C314.584478,88.5454545 312.489174,87.76 306.203261,87.76 C299.928261,87.76 297.702,88.5454545 292.201826,88.5454545 C291.678,88.5454545 291.154174,87.76 291.154174,86.7127273 C291.154174,85.6654545 291.678,85.0109091 292.201826,84.88 C298.487739,84.2254545 299.535391,82.1309091 299.535391,73.8945455 L299.535391,52.0436364 C299.535391,43.6654545 296.916261,37.9163636 287.749304,37.9163636 C281.987217,37.9163636 278.593261,40.2727273 274.795522,44.4509091 L274.795522,73.8945455 C274.795522,82.1309091 275.843174,84.2254545 282.129087,84.88 C282.652913,85.0109091 283.165826,85.6654545 283.165826,86.7127273 C283.165826,87.76 282.652913,88.5454545 282.129087,88.5454545 C276.628913,88.5454545 274.402652,87.76 268.116739,87.76 C261.972696,87.76 259.746435,88.5454545 254.246261,88.5454545 C253.722435,88.5454545 253.198609,87.76 253.198609,86.7127273 C253.198609,85.6654545 253.722435,85.0109091 254.246261,84.88 C261.841739,83.9636364 263.140391,82.2618182 263.140391,73.8945455 L263.140391,49.6872727 C263.140391,42.7490909 262.103652,41.3090909 255.817739,40.6545455 C255.293913,40.6545455 254.770087,39.8690909 254.770087,38.9527273 C254.770087,38.0363636 255.293913,37.3818182 255.817739,37.3818182 C261.972696,35.8218182 267.331,33.8581818 271.652565,30.5854545 C272.176391,30.3236364 272.438304,29.5381818 273.485957,29.5381818 C274.533609,29.5381818 275.319348,30.0618182 275.319348,30.5854545 L274.795522,38.8327273 C280.295696,33.7272727 286.177826,30.0618182 292.332783,30.0618182 C305.548478,30.0618182 311.310565,38.6909091 311.310565,48.9018182 L311.310565,73.8945455 C311.310565,82.2618182 312.489174,83.9636364 320.084652,84.88 C320.739435,85.0109091 321.121391,85.6654545 321.121391,86.7127273 C321.121391,87.76 320.739435,88.5454545 320.084652,88.5454545" id="Fill-6"></path>
                <path d="M382.310826,88.4145455 C376.810652,88.4145455 373.798652,87.8145455 367.512739,87.8145455 C361.368696,87.8145455 358.356696,88.4145455 352.856522,88.4145455 C352.332696,88.4145455 351.80887,87.7054545 351.80887,86.7563636 C351.80887,85.9272727 352.332696,85.2181818 352.856522,85.0981818 C360.452,84.3781818 361.761565,82.72 361.761565,75.1272727 L361.761565,19.9381818 C361.761565,13.5236364 360.713913,12.3345455 354.428,11.7454545 C353.904174,11.6363636 353.380348,11.0363636 353.380348,10.2072727 C353.380348,9.36727273 353.904174,8.77818182 354.428,8.77818182 C360.582957,7.34909091 366.476,5.58181818 370.786652,2.60363636 C371.321391,2.37454545 371.572391,1.66545455 372.620043,1.66545455 C373.667696,1.66545455 374.453435,2.13454545 374.453435,2.60363636 C374.071478,7.6 373.405783,17.0909091 373.405783,23.2545455 L373.405783,75.1272727 C373.405783,82.72 374.715348,84.3781818 382.310826,85.0981818 C382.834652,85.2181818 383.358478,85.9272727 383.358478,86.7563636 C383.358478,87.7054545 382.834652,88.4145455 382.310826,88.4145455" id="Fill-7"></path>
                <path d="M437.945522,53.2109091 L402.085261,53.2109091 C401.823348,55.5781818 401.692391,58.0545455 401.692391,60.5418182 C401.692391,75.2036364 409.28787,82.3927273 420.932087,82.3927273 C427.872783,82.3927273 434.540652,78.0727273 437.945522,73.6327273 C438.338391,72.9781818 439.90987,74.0254545 439.90987,75.8581818 C439.90987,76.2509091 439.778913,76.5127273 439.517,76.8945455 C435.326391,83.0472727 427.479913,90.5090909 416.359522,90.5090909 C400.513783,90.5090909 388.476696,77.2981818 388.476696,60.6836364 C388.476696,44.8436364 399.073261,30.0618182 416.359522,30.0618182 C432.052478,30.0618182 440.302739,42.7490909 440.302739,51.3890909 C440.302739,52.5672727 439.386043,53.2109091 437.945522,53.2109091 L437.945522,53.2109091 Z M416.359522,34.2509091 C409.025957,34.2509091 404.180565,41.3090909 402.609087,49.5563636 L420.80113,49.0327273 C427.348957,48.9018182 428.396609,47.7236364 428.396609,45.6290909 C428.396609,39.3454545 423.81313,34.2509091 416.359522,34.2509091 L416.359522,34.2509091 Z" id="Fill-8"></path>
                <path d="M507.581652,35.8218182 C500.248087,36.6072727 499.342304,38.1781818 495.413609,46.8072727 L476.697739,89.5927273 C476.435826,90.2472727 475.781043,90.64 475.126261,90.64 C474.078609,90.64 473.685739,90.1163636 473.423826,89.5927273 L455.886565,46.8072727 C453.136478,40.0109091 450.779261,36.6072727 444.231435,35.8218182 C443.707609,35.6909091 443.183783,34.9054545 443.183783,33.9890909 C443.183783,32.9418182 443.707609,32.1563636 444.231435,32.1563636 C449.731609,32.1563636 452.219783,32.9418182 458.374739,32.9418182 C464.649739,32.9418182 467.399826,32.1563636 472.9,32.1563636 C473.423826,32.1563636 473.947652,32.9418182 473.947652,33.9890909 C473.947652,34.9054545 473.423826,35.6909091 472.9,35.8218182 C468.185565,36.3454545 465.959304,37.2618182 465.959304,39.7490909 C465.959304,41.3090909 466.614087,43.5345455 467.792696,46.8072727 L478.651174,74.5490909 L489.520565,46.8072727 C490.83013,43.5345455 491.484913,41.3090909 491.484913,39.7490909 C491.484913,37.2618182 489.520565,36.3454545 484.80613,35.8218182 C484.293217,35.6909091 483.758478,34.9054545 483.758478,33.9890909 C483.758478,32.9418182 484.293217,32.1563636 484.80613,32.1563636 C490.306304,32.1563636 491.61587,32.9418182 496.723174,32.9418182 C499.735174,32.9418182 502.998174,32.1563636 507.581652,32.1563636 C508.105478,32.1563636 508.629304,32.9418182 508.629304,33.9890909 C508.629304,34.9054545 508.105478,35.6909091 507.581652,35.8218182" id="Fill-9"></path>
                <path d="M560.095217,53.2109091 L524.234957,53.2109091 C523.973043,55.5781818 523.842087,58.0545455 523.842087,60.5418182 C523.842087,75.2036364 531.437565,82.3927273 543.081783,82.3927273 C550.022478,82.3927273 556.690348,78.0727273 560.095217,73.6327273 C560.488087,72.9781818 562.059565,74.0254545 562.059565,75.8581818 C562.059565,76.2509091 561.928609,76.5127273 561.666696,76.8945455 C557.476087,83.0472727 549.618696,90.5090909 538.498304,90.5090909 C522.663478,90.5090909 510.626391,77.2981818 510.626391,60.6836364 C510.626391,44.8436364 521.222957,30.0618182 538.498304,30.0618182 C554.202174,30.0618182 562.452435,42.7490909 562.452435,51.3890909 C562.452435,52.5672727 561.535739,53.2109091 560.095217,53.2109091 L560.095217,53.2109091 Z M538.498304,34.2509091 C531.175652,34.2509091 526.330261,41.3090909 524.758783,49.5563636 L542.950826,49.0327273 C549.498652,48.9018182 550.535391,47.7236364 550.535391,45.6290909 C550.535391,39.3454545 545.962826,34.2509091 538.498304,34.2509091 L538.498304,34.2509091 Z" id="Fill-10"></path>
                <path d="M610.524391,42.88 C605.28613,42.88 604.631348,39.4763636 600.964565,39.4763636 C597.166826,39.4763636 594.820522,41.5709091 592.201391,44.4509091 L592.201391,73.8945455 C592.201391,82.2618182 594.951478,83.9636364 602.536043,84.88 C603.190826,85.0109091 603.583696,85.6654545 603.583696,86.7127273 C603.583696,87.76 603.190826,88.5454545 602.536043,88.5454545 C597.046783,88.5454545 592.594261,87.76 586.308348,87.76 C580.033348,87.76 577.021348,88.5454545 571.521174,88.5454545 C570.997348,88.5454545 570.473522,87.76 570.473522,86.7127273 C570.473522,85.6654545 570.997348,85.0109091 571.521174,84.88 C579.236696,83.9636364 580.415304,82.2618182 580.415304,73.8945455 L580.415304,49.6872727 C580.415304,42.7490909 579.367652,41.3090909 573.092652,40.6545455 C572.568826,40.6545455 572.045,39.8690909 572.045,38.9527273 C572.045,38.0363636 572.568826,37.3818182 573.092652,37.3818182 C579.236696,35.8218182 584.73687,33.8581818 589.058435,30.5854545 C589.451304,30.3236364 589.844174,29.5381818 590.891826,29.5381818 C591.808522,29.5381818 592.725217,30.0618182 592.725217,30.5854545 L592.201391,38.8327273 C597.701565,33.7272727 602.667,30.0618182 608.691,30.0618182 C612.881609,30.0618182 616.013652,33.2036364 616.013652,36.6072727 C616.013652,40.0109091 613.667348,42.88 610.524391,42.88" id="Fill-11"></path>
                <path d="M649.811348,88.5454545 C644.311174,88.5454545 641.310087,87.76 635.024174,87.76 C628.738261,87.76 625.857217,88.5454545 620.367957,88.5454545 C619.713174,88.5454545 619.320304,87.76 619.320304,86.7127273 C619.320304,85.6654545 619.713174,85.0109091 620.367957,84.88 C627.952522,83.9636364 629.13113,82.2618182 629.13113,73.8945455 L629.13113,49.6872727 C629.13113,42.7490909 628.083478,41.3090909 621.928522,40.6545455 C621.284652,40.6545455 620.891783,39.8690909 620.891783,38.9527273 C620.891783,38.0363636 621.284652,37.3818182 621.928522,37.3818182 C628.083478,35.8218182 633.976522,33.8581818 638.298087,30.5854545 C638.821913,30.3236364 639.083826,29.5381818 640.120565,29.5381818 C641.17913,29.5381818 641.953957,30.0618182 641.953957,30.5854545 C641.572,36.0836364 640.917217,46.5454545 640.917217,53.3527273 L640.917217,73.8945455 C640.917217,82.2618182 642.095826,83.9636364 649.811348,84.88 C650.335174,85.0109091 650.859,85.6654545 650.859,86.7127273 C650.859,87.76 650.335174,88.5454545 649.811348,88.5454545 L649.811348,88.5454545 Z M634.893217,14.3527273 C631.095478,14.3527273 628.083478,11.2218182 628.083478,7.55636364 C628.083478,3.76 631.095478,0.749090909 634.893217,0.749090909 C638.690957,0.749090909 641.692043,3.76 641.692043,7.55636364 C641.692043,11.2218182 638.690957,14.3527273 634.893217,14.3527273 L634.893217,14.3527273 Z" id="Fill-12"></path>
                <path d="M696.159043,40.0109091 L676.657435,39.4763636 L676.657435,70.8836364 C676.657435,79.12 679.276565,83.1781818 685.431522,83.1781818 C689.62213,83.1781818 692.241261,82.3927273 695.111391,80.7018182 C695.777087,80.2981818 696.693783,81.6181818 696.693783,82.7963636 C696.693783,83.3090909 696.43187,83.8327273 696.028087,84.2254545 C691.968435,87.6290909 687.526826,89.9854545 680.848043,89.9854545 C670.251478,89.9854545 664.227478,82.6545455 664.489391,72.8472727 L664.751304,41.0472727 C664.751304,40.1309091 664.227478,39.2145455 663.190739,39.2145455 L658.214391,39.2145455 C657.297696,39.2145455 656.762957,38.2981818 656.762957,37.5236364 C656.762957,36.7381818 657.417739,35.8218182 657.941565,35.56 C664.096522,31.8945455 669.727652,26.2654545 673.776391,20.3745455 C674.049217,19.9927273 674.573043,19.3381818 675.609783,19.3381818 C676.526478,19.3381818 677.443174,19.8509091 677.443174,20.3745455 L676.919348,32.9418182 L696.159043,32.9418182 C697.217609,32.9418182 697.861478,34.5127273 697.861478,36.4654545 C697.861478,38.5709091 697.217609,40.0109091 696.159043,40.0109091" id="Fill-13"></path>
                <path d="M744.482,40.0109091 L724.980391,39.4763636 L724.980391,70.8836364 C724.980391,79.12 727.599522,83.1781818 733.743565,83.1781818 C737.934174,83.1781818 740.564217,82.3927273 743.434348,80.7018182 C744.100043,80.2981818 745.016739,81.6181818 745.016739,82.7963636 C745.016739,83.3090909 744.743913,83.8327273 744.351043,84.2254545 C740.291391,87.6290909 735.849783,89.9854545 729.171,89.9854545 C718.574435,89.9854545 712.550435,82.6545455 712.812348,72.8472727 L713.074261,41.0472727 C713.074261,40.1309091 712.550435,39.2145455 711.502783,39.2145455 L706.526435,39.2145455 C705.609739,39.2145455 705.096826,38.2981818 705.096826,37.5236364 C705.096826,36.7381818 705.740696,35.8218182 706.264522,35.56 C712.408565,31.8945455 718.050609,26.2654545 722.099348,20.3745455 C722.372174,19.9927273 722.885087,19.3381818 723.932739,19.3381818 C724.849435,19.3381818 725.76613,19.8509091 725.76613,20.3745455 L725.242304,32.9418182 L744.482,32.9418182 C745.540565,32.9418182 746.184435,34.5127273 746.184435,36.4654545 C746.184435,38.5709091 745.540565,40.0109091 744.482,40.0109091" id="Fill-14"></path>
                <path d="M38.0370435,81.3781818 C38.0370435,100.643636 24.5157826,112.469091 9.56491304,112.469091 C3.73734783,112.469091 0.430695652,109.763636 0.430695652,105.945455 C0.430695652,102.443636 3.24626087,99.4327273 7.76426087,99.4327273 C13.4826957,99.4327273 13.580913,105.650909 18.098913,105.650909 C22.5186957,105.650909 26.2509565,98.9309091 26.2509565,77.0581818" id="Fill-15"></path>
            </g>
        </g>
    </g>
</svg>