<?xml version="1.0" encoding="UTF-8" standalone="no"?>
<svg width="158px" height="85px" viewBox="0 0 158 85" version="1.1" xmlns="http://www.w3.org/2000/svg" xmlns:xlink="http://www.w3.org/1999/xlink" xmlns:sketch="http://www.bohemiancoding.com/sketch/ns">
    <!-- Generator: Sketch 3.2.2 (9983) - http://www.bohemiancoding.com/sketch -->
    <title>Imported Layers</title>
    <desc>Created with Sketch.</desc>
    <defs></defs>
    <g id="Page-1" stroke="none" stroke-width="1" fill="none" fill-rule="evenodd" sketch:type="MSPage">
        <g id="Imported-Layers" sketch:type="MSLayerGroup" fill="#000000">
            <path d="M10.453,34.356 L10.453,19.334 C10.453,16.618 10.042,16.052 7.579,15.795 C7.375,15.795 7.17,15.488 7.17,15.129 C7.17,14.77 7.375,14.513 7.579,14.513 C9.991,13.899 12.349,13.128 14.043,11.846 C14.197,11.744 14.35,11.436 14.761,11.436 C15.12,11.436 15.479,11.642 15.479,11.846 C15.273,14.001 15.068,18.104 15.068,20.772 L15.068,32.018 M12.658,5.485 C11.221,5.485 9.991,4.254 9.991,2.818 C9.991,1.332 11.221,0.099 12.658,0.099 C14.145,0.099 15.325,1.332 15.325,2.818 C15.325,4.254 14.145,5.485 12.658,5.485" id="Fill-1" sketch:type="MSShapeGroup"></path>
            <path d="M44.263,33.496 C42.108,33.696 39.389,34.105 37.85,35.237 C37.697,35.392 37.388,35.542 37.131,35.542 C36.773,35.542 36.62,35.342 36.62,35.133 L36.824,31.9 C34.619,33.905 32.309,35.342 29.952,35.342 C24.771,35.342 22.513,31.955 22.513,27.953 L22.513,18.362 C22.513,15.079 21.847,14.463 18.871,14.565 C18.614,14.617 18.461,14.308 18.461,13.949 C18.461,13.54 18.614,13.128 18.871,13.128 C20.819,13.128 24.359,12.512 26.565,11.948 C26.874,11.898 27.13,12.205 27.13,12.617 L27.13,26.721 C27.13,30.004 28.104,32.259 31.695,32.259 C34.003,32.259 35.337,31.341 36.824,29.695 L36.824,18.362 C36.824,15.079 36.106,14.463 33.13,14.565 C32.876,14.617 32.721,14.308 32.721,13.949 C32.721,13.54 32.876,13.128 33.13,13.128 C35.131,13.128 38.62,12.512 40.876,11.948 C41.133,11.898 41.389,12.205 41.389,12.617 L41.389,28.979 C41.389,31.491 41.954,31.9 44.263,32.209 C44.467,32.209 44.672,32.519 44.672,32.877 C44.672,33.287 44.518,33.441 44.263,33.496" id="Fill-2" sketch:type="MSShapeGroup"></path>
            <path d="M54.792,35.342 C52.535,35.342 49.918,34.415 48.379,34.415 C48.174,32.619 47.713,30.313 47.456,28.979 C47.406,28.774 47.815,28.57 48.174,28.57 C48.534,28.57 48.841,28.722 48.893,28.979 C49.662,31.391 52.278,33.696 54.843,33.696 C57.46,33.696 58.896,32.159 58.896,29.695 C58.896,24.671 47.815,25.748 47.815,18.207 C47.815,14.513 51.56,11.642 55.664,11.642 C57.921,11.642 60.126,12.359 61.151,12.359 C61.204,14.153 61.306,15.949 61.46,17.489 C61.511,17.694 61.151,17.9 60.742,17.9 C60.383,17.9 60.076,17.746 60.024,17.489 C59.665,15.079 58.075,13.283 55.92,13.283 C53.151,13.283 51.919,14.565 51.919,16.77 C51.919,21.542 63.204,21.747 63.204,27.953 C63.204,32.259 59.305,35.342 54.792,35.342" id="Fill-3" sketch:type="MSShapeGroup"></path>
            <path d="M81.886,15.54 L74.243,15.333 L74.243,27.644 C74.243,30.877 75.269,32.469 77.681,32.469 C79.322,32.469 80.348,32.159 81.475,31.491 C81.732,31.341 82.091,31.85 82.091,32.313 C82.091,32.519 81.989,32.723 81.835,32.877 C80.246,34.21 78.502,35.133 75.884,35.133 C71.729,35.133 69.369,32.259 69.474,28.415 L69.576,15.949 C69.576,15.59 69.369,15.231 68.96,15.231 L67.011,15.231 C66.652,15.231 66.445,14.872 66.445,14.565 C66.445,14.258 66.702,13.899 66.909,13.796 C69.319,12.359 71.524,10.154 73.116,7.845 C73.218,7.692 73.423,7.436 73.832,7.436 C74.191,7.436 74.55,7.64 74.55,7.845 L74.346,12.769 L81.886,12.769 C82.296,12.769 82.553,13.385 82.553,14.153 C82.553,14.976 82.296,15.54 81.886,15.54" id="Fill-4" sketch:type="MSShapeGroup"></path>
            <path d="M97.027,34.569 C94.872,34.569 93.694,34.265 91.232,34.265 C88.77,34.265 87.64,34.569 85.487,34.569 C85.23,34.569 85.076,34.265 85.076,33.851 C85.076,33.441 85.23,33.186 85.487,33.137 C88.461,32.777 88.922,32.109 88.922,28.824 L88.922,19.334 C88.922,16.618 88.513,16.052 86.101,15.795 C85.846,15.795 85.691,15.488 85.691,15.129 C85.691,14.77 85.846,14.513 86.101,14.513 C88.513,13.899 90.82,13.128 92.514,11.846 C92.719,11.744 92.821,11.436 93.231,11.436 C93.642,11.436 93.949,11.642 93.949,11.846 C93.796,14.001 93.54,18.104 93.54,20.772 L93.54,28.824 C93.54,32.109 94.002,32.777 97.027,33.137 C97.232,33.186 97.439,33.441 97.439,33.851 C97.439,34.265 97.232,34.569 97.027,34.569 L97.027,34.569 Z M91.18,5.485 C89.693,5.485 88.513,4.254 88.513,2.818 C88.513,1.332 89.693,0.151 91.18,0.151 C92.666,0.151 93.847,1.332 93.847,2.818 C93.847,4.254 92.666,5.485 91.18,5.485 L91.18,5.485 Z" id="Fill-5" sketch:type="MSShapeGroup"></path>
            <path d="M125.606,34.569 C123.451,34.569 122.63,34.265 120.168,34.265 C117.706,34.265 116.835,34.569 114.68,34.569 C114.475,34.569 114.271,34.265 114.271,33.851 C114.271,33.441 114.475,33.186 114.68,33.137 C117.142,32.877 117.553,32.059 117.553,28.824 L117.553,20.258 C117.553,16.975 116.526,14.72 112.936,14.72 C110.679,14.72 109.346,15.643 107.857,17.284 L107.857,28.824 C107.857,32.059 108.269,32.877 110.73,33.137 C110.936,33.186 111.14,33.441 111.14,33.851 C111.14,34.265 110.936,34.569 110.73,34.569 C108.576,34.569 107.705,34.265 105.243,34.265 C102.831,34.265 101.96,34.569 99.805,34.569 C99.6,34.569 99.395,34.265 99.395,33.851 C99.395,33.441 99.6,33.186 99.805,33.137 C102.78,32.777 103.292,32.109 103.292,28.824 L103.292,19.334 C103.292,16.618 102.883,16.052 100.421,15.795 C100.214,15.795 100.009,15.488 100.009,15.129 C100.009,14.77 100.214,14.513 100.421,14.513 C102.831,13.899 104.934,13.128 106.627,11.846 C106.831,11.744 106.935,11.436 107.345,11.436 C107.755,11.436 108.064,11.642 108.064,11.846 L107.857,15.079 C110.013,13.078 112.32,11.642 114.732,11.642 C119.911,11.642 122.169,15.026 122.169,19.027 L122.169,28.824 C122.169,32.109 122.63,32.777 125.606,33.137 C125.863,33.186 126.016,33.441 126.016,33.851 C126.016,34.265 125.863,34.569 125.606,34.569" id="Fill-6" sketch:type="MSShapeGroup"></path>
            <path d="M14.981,83.423 C12.825,83.423 11.646,83.189 9.184,83.189 C6.774,83.189 5.594,83.423 3.439,83.423 C3.234,83.423 3.03,83.144 3.03,82.772 C3.03,82.446 3.234,82.166 3.439,82.124 C6.415,81.84 6.929,81.189 6.929,78.215 L6.929,56.576 C6.929,54.063 6.517,53.598 4.055,53.366 C3.851,53.32 3.646,53.088 3.646,52.76 C3.646,52.435 3.851,52.203 4.055,52.203 C6.467,51.643 8.774,50.947 10.466,49.782 C10.672,49.69 10.775,49.413 11.185,49.413 C11.596,49.413 11.903,49.599 11.903,49.782 C11.751,51.739 11.493,55.46 11.493,57.878 L11.493,78.215 C11.493,81.189 12.006,81.84 14.981,82.124 C15.186,82.166 15.391,82.446 15.391,82.772 C15.391,83.144 15.186,83.423 14.981,83.423" id="Fill-7" sketch:type="MSShapeGroup"></path>
            <path d="M36.785,69.624 L22.731,69.624 C22.631,70.549 22.576,71.522 22.576,72.497 C22.576,78.24 25.555,81.063 30.115,81.063 C32.839,81.063 35.454,79.368 36.785,77.626 C36.94,77.369 37.558,77.781 37.558,78.499 C37.558,78.653 37.504,78.758 37.398,78.909 C35.763,81.322 32.68,84.246 28.324,84.246 C22.113,84.246 17.398,79.063 17.398,72.549 C17.398,66.341 21.554,60.546 28.324,60.546 C34.476,60.546 37.709,65.522 37.709,68.907 C37.709,69.369 37.35,69.624 36.785,69.624 L36.785,69.624 Z M28.324,62.187 C25.449,62.187 23.55,64.956 22.936,68.189 L30.065,67.982 C32.629,67.932 33.039,67.47 33.039,66.65 C33.039,64.188 31.248,62.187 28.324,62.187 L28.324,62.187 Z" id="Fill-8" sketch:type="MSShapeGroup"></path>
            <path d="M64.081,62.803 C61.206,63.11 60.847,63.726 59.307,67.111 L51.973,83.887 C51.867,84.142 51.613,84.296 51.358,84.296 C50.948,84.296 50.789,84.087 50.69,83.887 L43.815,67.111 C42.737,64.444 41.818,63.11 39.25,62.803 C39.045,62.751 38.84,62.444 38.84,62.084 C38.84,61.673 39.045,61.366 39.25,61.366 C41.404,61.366 42.378,61.673 44.792,61.673 C47.252,61.673 48.33,61.366 50.485,61.366 C50.69,61.366 50.895,61.673 50.895,62.084 C50.895,62.444 50.69,62.751 50.485,62.803 C48.635,63.008 47.767,63.367 47.767,64.342 C47.767,64.956 48.024,65.829 48.485,67.111 L52.74,77.985 L56.996,67.111 C57.515,65.829 57.769,64.956 57.769,64.342 C57.769,63.367 56.996,63.008 55.15,62.803 C54.95,62.751 54.741,62.444 54.741,62.084 C54.741,61.673 54.95,61.366 55.15,61.366 C57.306,61.366 57.819,61.673 59.82,61.673 C60.998,61.673 62.284,61.366 64.081,61.366 C64.281,61.366 64.489,61.673 64.489,62.084 C64.489,62.444 64.281,62.751 64.081,62.803" id="Fill-9" sketch:type="MSShapeGroup"></path>
            <path d="M84.654,69.624 L70.604,69.624 C70.5,70.549 70.449,71.522 70.449,72.497 C70.449,78.24 73.424,81.063 77.988,81.063 C80.708,81.063 83.327,79.368 84.654,77.626 C84.814,77.369 85.427,77.781 85.427,78.499 C85.427,78.653 85.373,78.758 85.272,78.909 C83.631,81.322 80.553,84.246 76.193,84.246 C69.986,84.246 65.266,79.063 65.266,72.549 C65.266,66.341 69.423,60.546 76.193,60.546 C82.349,60.546 85.582,65.522 85.582,68.907 C85.582,69.369 85.223,69.624 84.654,69.624 L84.654,69.624 Z M76.193,62.187 C73.318,62.187 71.423,64.956 70.805,68.189 L77.938,67.982 C80.502,67.932 80.912,67.47 80.912,66.65 C80.912,64.188 79.117,62.187 76.193,62.187 L76.193,62.187 Z" id="Fill-10" sketch:type="MSShapeGroup"></path>
            <path d="M104.419,65.572 C102.368,65.572 102.113,64.238 100.676,64.238 C99.19,64.238 98.262,65.059 97.239,66.188 L97.239,77.729 C97.239,81.014 98.316,81.682 101.29,82.041 C101.545,82.091 101.704,82.346 101.704,82.755 C101.704,83.169 101.545,83.474 101.29,83.474 C99.14,83.474 97.394,83.169 94.93,83.169 C92.469,83.169 91.287,83.474 89.131,83.474 C88.931,83.474 88.723,83.169 88.723,82.755 C88.723,82.346 88.931,82.091 89.131,82.041 C92.16,81.682 92.624,81.014 92.624,77.729 L92.624,68.239 C92.624,65.522 92.214,64.956 89.751,64.699 C89.545,64.699 89.341,64.392 89.341,64.033 C89.341,63.674 89.545,63.417 89.751,63.417 C92.16,62.803 94.315,62.033 96.007,60.75 C96.162,60.648 96.315,60.341 96.726,60.341 C97.085,60.341 97.443,60.546 97.443,60.75 L97.239,63.983 C99.394,61.982 101.345,60.546 103.701,60.546 C105.347,60.546 106.574,61.775 106.574,63.11 C106.574,64.444 105.651,65.572 104.419,65.572" id="Fill-11" sketch:type="MSShapeGroup"></path>
            <path d="M119.817,83.474 C117.663,83.474 116.485,83.169 114.025,83.169 C111.561,83.169 110.434,83.474 108.278,83.474 C108.019,83.474 107.868,83.169 107.868,82.755 C107.868,82.346 108.019,82.091 108.278,82.041 C111.252,81.682 111.711,81.014 111.711,77.729 L111.711,68.239 C111.711,65.522 111.302,64.956 108.892,64.699 C108.638,64.699 108.483,64.392 108.483,64.033 C108.483,63.674 108.638,63.417 108.892,63.417 C111.302,62.803 113.612,62.033 115.303,60.75 C115.512,60.648 115.613,60.341 116.021,60.341 C116.431,60.341 116.74,60.546 116.74,60.75 C116.59,62.905 116.33,67.009 116.33,69.676 L116.33,77.729 C116.33,81.014 116.79,81.682 119.817,82.041 C120.023,82.091 120.231,82.346 120.231,82.755 C120.231,83.169 120.023,83.474 119.817,83.474 L119.817,83.474 Z M113.972,54.389 C112.483,54.389 111.302,53.159 111.302,51.722 C111.302,50.236 112.483,49.056 113.972,49.056 C115.458,49.056 116.639,50.236 116.639,51.722 C116.639,53.159 115.458,54.389 113.972,54.389 L113.972,54.389 Z" id="Fill-12" sketch:type="MSShapeGroup"></path>
            <path d="M137.982,64.444 L130.339,64.238 L130.339,76.548 C130.339,79.781 131.366,81.373 133.776,81.373 C135.418,81.373 136.446,81.063 137.573,80.395 C137.833,80.245 138.19,80.754 138.19,81.218 C138.19,81.423 138.087,81.627 137.933,81.782 C136.341,83.115 134.599,84.038 131.98,84.038 C127.829,84.038 125.47,81.164 125.569,77.319 L125.674,64.853 C125.674,64.495 125.47,64.136 125.06,64.136 L123.109,64.136 C122.75,64.136 122.546,63.776 122.546,63.469 C122.546,63.162 122.801,62.803 123.005,62.701 C125.415,61.264 127.624,59.059 129.212,56.749 C129.316,56.596 129.521,56.34 129.93,56.34 C130.289,56.34 130.648,56.544 130.648,56.749 L130.443,61.673 L137.982,61.673 C138.396,61.673 138.651,62.29 138.651,63.058 C138.651,63.88 138.396,64.444 137.982,64.444" id="Fill-13" sketch:type="MSShapeGroup"></path>
            <path d="M156.92,64.444 L149.275,64.238 L149.275,76.548 C149.275,79.781 150.303,81.373 152.713,81.373 C154.355,81.373 155.383,81.063 156.51,80.395 C156.77,80.245 157.129,80.754 157.129,81.218 C157.129,81.423 157.023,81.627 156.869,81.782 C155.277,83.115 153.537,84.038 150.916,84.038 C146.766,84.038 144.406,81.164 144.506,77.319 L144.611,64.853 C144.611,64.495 144.406,64.136 143.997,64.136 L142.047,64.136 C141.688,64.136 141.482,63.776 141.482,63.469 C141.482,63.162 141.737,62.803 141.941,62.701 C144.353,61.264 146.562,59.059 148.148,56.749 C148.252,56.596 148.457,56.34 148.867,56.34 C149.227,56.34 149.586,56.544 149.586,56.749 L149.379,61.673 L156.92,61.673 C157.332,61.673 157.588,62.29 157.588,63.058 C157.588,63.88 157.332,64.444 156.92,64.444" id="Fill-14" sketch:type="MSShapeGroup"></path>
            <path d="M15.068,31.758 C15.068,39.314 9.772,43.95 3.912,43.95 C1.629,43.95 0.333,42.889 0.333,41.394 C0.333,40.02 1.435,38.837 3.204,38.837 C5.444,38.837 5.484,41.273 7.255,41.273 C8.987,41.273 10.453,38.642 10.453,30.066" id="Fill-15" sketch:type="MSShapeGroup"></path>
        </g>
    </g>
</svg>